HIERARCHY
ROOT Hips
{
	OFFSET	0.00	0.00	0.00
	CHANNELS 6 Xposition Yposition Zposition Zrotation Xrotation Yrotation
	JOINT LeftUpLeg
	{
		OFFSET	 0.126116	-0.014019	-0.065224
		CHANNELS 3 Zrotation Xrotation Yrotation
		JOINT LeftLeg
		{
			OFFSET	 0.000000	 0.000000	 0.569914
			CHANNELS 3 Zrotation Xrotation Yrotation
			JOINT LeftFoot
			{
				OFFSET	 0.000000	 0.000000	 0.544423
				CHANNELS 3 Zrotation Xrotation Yrotation
				JOINT LeftToeBase
				{
					OFFSET	 0.000000	 0.000000	 0.207117
					CHANNELS 3 Zrotation Xrotation Yrotation
					End Site
					{
						OFFSET	 0.000000	 0.000000	 0.207117
					}
				}
			}
		}
	}
	JOINT RightUpLeg
	{
		OFFSET	-0.124023	-0.008373	-0.065224
		CHANNELS 3 Zrotation Xrotation Yrotation
		JOINT RightLeg
		{
			OFFSET	 0.000000	 0.000000	 0.570047
			CHANNELS 3 Zrotation Xrotation Yrotation
			JOINT RightFoot
			{
				OFFSET	 0.000000	 0.000000	 0.544354
				CHANNELS 3 Zrotation Xrotation Yrotation
				JOINT RightToeBase
				{
					OFFSET	 0.000000	 0.000000	 0.207540
					CHANNELS 3 Zrotation Xrotation Yrotation
					End Site
					{
						OFFSET	 0.000000	 0.000000	 0.207540
					}
				}
			}
		}
	}
	JOINT Spine
	{
		OFFSET	 0.000184	-0.007763	 0.117403
		CHANNELS 3 Zrotation Xrotation Yrotation
		JOINT Spine1
		{
			OFFSET	 0.000000	 0.000000	 0.137269
			CHANNELS 3 Zrotation Xrotation Yrotation
			JOINT Spine2
			{
				OFFSET	 0.000000	 0.000000	 0.156879
				CHANNELS 3 Zrotation Xrotation Yrotation
				JOINT LeftShoulder
				{
					OFFSET	 0.080501	-0.002496	 0.160144
					CHANNELS 3 Zrotation Xrotation Yrotation
					JOINT LeftArm
					{
						OFFSET	 0.000000	 0.000000	 0.164363
						CHANNELS 3 Zrotation Xrotation Yrotation
						JOINT LeftForeArm
						{
							OFFSET	 0.000000	 0.000000	 0.364576
							CHANNELS 3 Zrotation Xrotation Yrotation
							JOINT LeftHand
							{
								OFFSET	 0.000000	 0.000000	 0.360812
								CHANNELS 3 Zrotation Xrotation Yrotation
								JOINT LeftHandIndex1
								{
									OFFSET	 0.000000	 0.000000	 0.086006
									CHANNELS 3 Zrotation Xrotation Yrotation
									JOINT LeftHandIndex2
									{
										OFFSET	 0.000000	 0.000000	 0.047236
										CHANNELS 3 Zrotation Xrotation Yrotation
										JOINT LeftHandIndex3
										{
											OFFSET	-0.004284	-0.000551	 0.038166
											CHANNELS 3 Zrotation Xrotation Yrotation
											End Site
											{
												OFFSET	-0.004284	-0.000551	 0.038166
											}
										}
									}
								}
							}
						}
					}
				}
				JOINT Neck
				{
					OFFSET	 0.000000	 0.000000	 0.176489
					CHANNELS 3 Zrotation Xrotation Yrotation
					JOINT Head
					{
						OFFSET	 0.000000	-0.001747	 0.077940
						CHANNELS 3 Zrotation Xrotation Yrotation
						End Site
						{
							OFFSET	 0.000000	-0.001747	 0.077940
						}
					}
				}
				JOINT RightShoulder
				{
					OFFSET	-0.080363	 0.000306	 0.159706
					CHANNELS 3 Zrotation Xrotation Yrotation
					JOINT RightArm
					{
						OFFSET	 0.000000	 0.000000	 0.164196
						CHANNELS 3 Zrotation Xrotation Yrotation
						JOINT RightForeArm
						{
							OFFSET	 0.000000	 0.000000	 0.365611
							CHANNELS 3 Zrotation Xrotation Yrotation
							JOINT RightHand
							{
								OFFSET	 0.000000	 0.000000	 0.360648
								CHANNELS 3 Zrotation Xrotation Yrotation
								JOINT RightHandIndex1
								{
									OFFSET	 0.000000	 0.000000	 0.069977
									CHANNELS 3 Zrotation Xrotation Yrotation
									JOINT RightHandIndex2
									{
										OFFSET	 0.000000	 0.000000	 0.052305
										CHANNELS 3 Zrotation Xrotation Yrotation
										JOINT RightHandIndex3
										{
											OFFSET	 0.009002	-0.000782	 0.042196
											CHANNELS 3 Zrotation Xrotation Yrotation
											End Site
											{
												OFFSET	 0.009002	-0.000782	 0.042196
											}
										}
									}
								}
							}
						}
					}
				}
			}
		}
	}
}
MOTION
Frames:    6
Frame Time: 0.03333334
-5.423356	-17.754150	-0.001865	-42.296220	 1.083947	 0.527199	 2.156716	-33.742330	 172.358600	-5.993854	-68.057990	-6.496214	 177.074800	 86.893610	-179.921500	-2.328577	 37.026420	-0.198609	-0.184070	-35.309320	-177.468900	 1.726053	-72.593410	 4.328269	-177.842200	 85.490420	 179.482000	 2.404660	 21.536340	-0.142437	 28.432710	 14.008320	 2.099732	-8.333890	 7.437157	-1.558783	-9.630500	 4.206668	-0.284477	-135.853800	 89.528950	-132.555200	 49.109240	 61.195090	-77.326510	-39.709900	 13.232100	-28.602950	 54.942350	-15.261960	 11.674650	-3.812334	 37.924440	-2.927599	-2.450526	 36.184240	 0.754587	-1.378229	 35.397820	-2.634230	 1.592711	 2.490034	-3.132539	-1.878576	 7.215883	 3.440876	 93.994150	 85.954170	 171.423300	-54.116000	 70.510760	 73.362430	 19.054580	 4.671861	 34.115100	-81.055040	-19.216300	-9.930971	 6.437017	 35.671460	-0.771858	 2.830251	 35.756010	-7.813440	-2.350882	 35.473990	 5.254307
-5.420870	-17.753790	 0.007319	-42.960650	 2.279227	 0.411530	 2.369452	-34.320890	 172.497300	-5.286068	-66.718100	-5.558828	 176.523000	 87.421240	-179.137200	-2.339250	 35.815430	-0.168647	 0.209375	-35.794870	-177.558200	 1.517256	-70.691300	 4.343872	-177.302700	 85.864210	 179.104300	 2.405824	 20.666650	-0.159842	 26.478800	 14.006980	 2.024014	-8.297547	 7.218955	-1.557385	-9.483116	 3.989321	-0.298160	-128.783200	 89.459680	-139.627700	 47.700360	 61.171730	-76.408160	-37.964040	 11.473680	-27.731540	 55.249760	-14.133160	 10.177090	-3.812334	 37.924440	-2.927599	-2.450526	 36.184240	 0.754587	-1.378229	 35.397820	-2.634230	 1.725021	 2.325512	-3.091883	-1.750445	 7.060858	 3.831666	 94.162130	 85.996940	 171.154900	-54.045090	 70.772160	 73.171490	 17.431040	 3.017546	 33.079050	-81.279610	-18.078690	-8.433080	 6.437017	 35.671460	-0.771858	 2.830251	 35.756010	-7.813440	-2.350882	 35.473990	 5.254307
-5.418466	-17.753510	 0.015378	-43.533840	 3.348762	 0.239409	 2.565560	-34.852650	 172.720200	-4.762366	-65.579040	-4.834867	 175.730800	 87.902760	-178.140100	-2.347039	 34.857890	-0.145465	 0.573279	-36.315720	-177.505300	 1.222923	-69.235470	 4.264458	-176.710200	 86.257600	 178.601600	 2.406277	 20.253190	-0.168074	 24.458730	 13.963840	 1.998391	-8.275412	 7.024816	-1.530060	-9.354446	 3.796046	-0.309929	-124.676800	 89.408840	-143.754300	 46.454090	 61.091200	-75.608000	-36.390970	 9.974699	-26.894170	 55.083640	-13.157400	 8.745886	-3.812334	 37.924440	-2.927599	-2.450526	 36.184240	 0.754587	-1.378229	 35.397820	-2.634230	 1.836324	 2.201691	-3.029917	-1.631882	 6.920731	 4.209974	 94.282230	 86.026700	 170.964000	-54.017570	 71.054480	 72.930920	 16.014350	 1.606990	 32.060560	-81.025320	-17.087580	-6.982244	 6.437017	 35.671460	-0.771858	 2.830251	 35.756010	-7.813440	-2.350882	 35.473990	 5.254307
-5.416022	-17.753480	 0.023075	-44.153020	 4.342841	 0.023185	 2.821447	-35.260600	 172.985900	-4.415970	-64.476230	-4.248368	 174.416600	 88.380330	-176.650000	-2.353837	 33.958370	-0.124072	 0.981260	-36.892930	-177.356700	 0.675166	-68.149250	 3.991464	-175.695600	 86.806470	 177.560300	 2.406578	 19.948340	-0.174126	 22.215470	 13.954820	 2.026811	-8.222604	 6.855971	-1.484419	-9.224378	 3.605061	-0.321024	-121.875700	 89.365720	-146.574400	 45.278150	 60.976300	-74.975270	-34.834610	 8.536799	-25.997750	 54.496790	-12.211650	 7.263743	-3.812334	 37.924440	-2.927599	-2.450526	 36.184240	 0.754587	-1.378229	 35.397820	-2.634230	 1.953995	 2.091620	-2.959830	-1.519031	 6.768216	 4.578833	 94.371420	 86.049530	 170.825700	-54.004200	 71.369060	 72.652520	 14.444880	 0.186087	 30.925620	-80.523870	-16.116830	-5.461828	 6.437017	 35.671460	-0.771858	 2.830251	 35.756010	-7.813440	-2.350882	 35.473990	 5.254307
-5.413721	-17.753700	 0.030490	-44.840900	 5.218827	-0.220765	 3.182084	-35.514400	 173.306300	-4.263222	-63.370160	-3.776490	 171.930800	 88.858590	-174.019500	-2.359746	 33.121960	-0.104493	 1.411445	-37.489090	-177.157300	-0.108304	-67.206310	 3.520118	-174.118800	 87.475010	 175.844700	 2.406864	 19.603440	-0.180962	 19.626630	 14.070480	 2.124657	-8.129575	 6.755514	-1.419252	-9.092093	 3.437472	-0.329734	-120.004900	 89.330020	-148.446500	 44.141020	 60.862040	-74.520670	-33.072510	 7.037483	-24.989980	 53.610210	-11.257940	 5.707322	-3.812334	 37.924440	-2.927599	-2.450526	 36.184240	 0.754587	-1.378229	 35.397820	-2.634230	 2.084531	 1.983364	-2.896902	-1.417468	 6.642621	 4.912850	 94.441680	 86.069850	 170.721300	-53.907020	 71.708650	 72.285100	 12.589250	-1.314289	 29.587610	-79.767670	-15.124780	-3.843766	 6.437017	 35.671460	-0.771858	 2.830251	 35.756010	-7.813440	-2.350882	 35.473990	 5.254307
-5.411948	-17.754110	 0.036488	-45.435780	 5.893559	-0.432551	 3.559551	-35.600500	 173.599600	-4.213934	-62.407860	-3.406175	 167.336200	 89.258750	-169.303400	-2.363729	 32.523200	-0.090659	 1.720002	-37.958640	-176.907500	-0.877345	-66.395910	 2.979852	-172.501600	 87.967990	 174.036500	 2.407054	 19.345010	-0.186072	 16.992860	 14.254700	 2.253666	-8.049977	 6.727509	-1.346995	-8.988124	 3.325408	-0.334759	-118.948300	 89.309310	-149.508500	 43.195870	 60.804410	-74.315250	-31.202370	 5.618255	-23.984230	 52.703770	-10.420830	 4.318203	-3.812334	 37.924440	-2.927599	-2.450526	 36.184240	 0.754587	-1.378229	 35.397820	-2.634230	 2.188149	 1.889875	-2.859938	-1.338048	 6.568142	 5.126501	 94.496250	 86.088190	 170.645500	-53.753430	 72.035780	 71.898280	 10.697880	-2.680734	 28.201170	-78.834950	-14.239350	-2.377063	 6.437017	 35.671460	-0.771858	 2.830251	 35.756010	-7.813440	-2.350882	 35.473990	 5.254307
